<?xml version="1.0" encoding="UTF-8"?>
<svg version="1.1" xmlns="http://www.w3.org/2000/svg" width="512" height="512">
<path d="M0 0 C13.86 0 27.72 0 42 0 C59.25500955 59.6399785 76.32014961 119.33485507 93.1784668 179.0881958 C94.01655938 182.05869231 94.85492763 185.02911092 95.69335938 187.99951172 C98.79795627 198.99900306 101.90044674 209.99908635 105 221 C109.96954233 205.9671643 114.16252638 190.73894989 118.28503418 175.4569397 C120.07528191 168.82073052 121.87906376 162.18819182 123.68148422 155.55528069 C124.29282829 153.30520445 124.90376519 151.05501793 125.51467896 148.80482483 C129.04825746 135.79488703 132.63372903 122.79970116 136.25 109.8125 C136.53730988 108.78042419 136.82461975 107.74834839 137.12063599 106.68499756 C138.67264091 101.11127598 140.22617113 95.53798084 141.78027344 89.96484375 C144.19894439 81.28921866 146.61186496 72.61199615 149.02497864 63.93482399 C150.54882342 58.45571947 152.07322008 52.97676848 153.59765625 47.49782848 C154.85901329 42.96441122 156.12020816 38.43094903 157.38098145 33.89736938 C158.56944012 29.62403319 159.75867888 25.35091482 160.94849777 21.07795715 C161.39141842 19.48682564 161.83407181 17.89561971 162.2764473 16.30433655 C162.8852493 14.11455815 163.49499507 11.9250447 164.10498047 9.7355957 C164.44834442 8.50170609 164.79170837 7.26781647 165.14547729 5.99653625 C165.71925112 3.984496 166.33837152 1.98488543 167 0 C180.2 0 193.4 0 207 0 C212.78097599 18.49912317 212.78097599 18.49912317 215.25839233 27.64076233 C215.52973558 28.63983455 215.52973558 28.63983455 215.80656052 29.65909004 C215.99285648 30.34522314 216.17915245 31.03135624 216.37109375 31.73828125 C216.7734708 33.2114922 217.17611705 34.68462964 217.57901001 36.15769958 C218.42854178 39.26585317 219.27631191 42.37447922 220.12258911 45.48352051 C221.46149074 50.40226003 222.80452339 55.31986593 224.14819336 60.23730469 C225.72754056 66.01817527 227.30607594 71.79926595 228.88328266 77.5807209 C232.26421659 89.97381675 235.66005617 102.36279291 239.0625 114.75 C239.60059719 116.71003923 240.13868307 118.67008156 240.67675781 120.63012695 C246.46552742 141.71212749 252.27225078 162.78919724 258.07910538 183.86622238 C258.87818551 186.76666098 259.67717439 189.66712471 260.47616196 192.56758881 C261.02421027 194.55690993 261.57241823 196.546187 262.12063599 198.53546143 C264.0908572 205.68748446 266.05258732 212.84173137 268 220 C269.79260169 217.31109746 270.51865366 215.66438904 271.3659668 212.63525391 C271.61832092 211.74329819 271.87067505 210.85134247 272.13067627 209.93235779 C272.40079529 208.95694534 272.67091431 207.9815329 272.94921875 206.9765625 C273.38279694 205.43591881 273.38279694 205.43591881 273.82513428 203.864151 C274.78412717 200.45244717 275.73570208 197.0387174 276.6875 193.625 C277.36214019 191.2209496 278.03736081 188.81706202 278.71313477 186.41333008 C280.11770677 181.41535799 281.51976745 176.41669187 282.91992188 171.41748047 C285.76874382 161.25125491 288.6421311 151.09200316 291.51846313 140.93353271 C292.44664214 137.65521 293.37409878 134.37668348 294.30151367 131.09814453 C299.16899143 113.89823109 304.07563982 96.70961986 308.99487305 79.52444458 C312.78749674 66.27489363 316.56530702 53.02139683 320.30859375 39.7578125 C320.65773834 38.52117859 321.00688293 37.28454468 321.36660767 36.01043701 C323.04478657 30.06504905 324.72048562 24.11897754 326.39257812 18.171875 C326.9895231 16.05467052 327.58652505 13.9374821 328.18359375 11.8203125 C328.45570175 10.84925568 328.72780975 9.87819885 329.00816345 8.87771606 C329.25740067 7.99526215 329.50663788 7.11280823 329.76342773 6.20361328 C329.97942123 5.43542267 330.19541473 4.66723206 330.41795349 3.87576294 C331 2 331 2 332 0 C345.2 0 358.4 0 372 0 C369.59603969 9.61584126 367.18543726 19.103346 364.33203125 28.57421875 C363.98418579 29.74017075 363.63634033 30.90612274 363.2779541 32.10740662 C362.52275844 34.63791377 361.76638437 37.16803159 361.00796509 39.6975708 C359.11757343 46.00370606 357.23895761 52.31335546 355.35957909 58.62277985 C354.90888534 60.13572986 354.45806936 61.64864348 354.00713539 63.16152191 C348.32810261 82.21595393 342.72493442 101.29262995 337.12187195 120.36951065 C334.71249934 128.57216774 332.30171415 136.77440983 329.890625 144.9765625 C329.50391003 146.29215495 329.50391003 146.29215495 329.10938263 147.63432503 C324.0030086 165.00440192 318.86711853 182.3656023 313.71582031 199.72241211 C310.15474296 211.72216976 306.60318544 223.72468083 303.0625 235.73046875 C302.85341444 236.43938892 302.64432888 237.1483091 302.42890739 237.8787117 C300.37023012 244.8589992 298.31221123 251.83948021 296.25562477 258.82038403 C295.32832652 261.9676011 294.40041742 265.11463811 293.47265625 268.26171875 C293.13496216 269.40883835 292.79726807 270.55595795 292.44934082 271.73783875 C292.1400061 272.78687881 291.83067139 273.83591888 291.51196289 274.91674805 C291.24267471 275.8308696 290.97338654 276.74499115 290.69593811 277.68681335 C290.16033131 279.46708445 289.58789794 281.23630619 289 283 C275.47 283 261.94 283 248 283 C246.18940113 278.17173635 244.54159635 273.69674102 243.18847656 268.78369141 C242.86162369 267.60426468 242.53477081 266.42483795 242.19801331 265.20967102 C241.84551794 263.92364378 241.49305633 262.63760729 241.140625 261.3515625 C240.76015565 259.97424185 240.37932126 258.59702199 239.99815369 257.21989441 C239.17726787 254.25183672 238.35849109 251.28320861 237.54135132 248.31411743 C235.54208254 241.05095804 233.53066845 233.79115692 231.52039146 226.53103828 C230.80913112 223.96200386 230.09826514 221.39286051 229.3874054 218.82371521 C224.27307542 200.34649417 219.10214165 181.88519898 213.92120743 163.42655945 C213.18851163 160.81610424 212.45598623 158.20560125 211.72348022 155.59509277 C203.52613849 126.3843079 195.28701307 97.18548054 187 68 C185.21450067 70.67824899 184.49115637 72.30283993 183.64990234 75.31713867 C183.40072556 76.19956741 183.15154877 77.08199615 182.89482117 77.99116516 C182.62788956 78.95701035 182.36095795 79.92285553 182.0859375 80.91796875 C181.79971024 81.93654465 181.51348297 82.95512054 181.21858215 84.00456238 C180.59517532 86.22519076 179.97419235 88.44650068 179.35531616 90.668396 C178.01610161 95.47586064 176.66506586 100.27997923 175.31480408 105.08435059 C174.60657443 107.60477176 173.8989533 110.12536399 173.19190979 112.64611816 C169.56624575 125.56792976 165.88078891 138.47238594 162.1875 151.375 C161.52686182 153.68503714 160.86629931 155.99509592 160.20581055 158.30517578 C158.49794167 164.2780086 156.78936464 170.25063857 155.08056641 176.22320557 C152.00348859 186.97820434 148.9270789 197.73339376 145.85217285 208.48901367 C145.08018264 211.18927384 144.30795386 213.88946561 143.53552246 216.58959961 C139.8165385 229.59051282 136.10351543 242.59290255 132.453125 255.61328125 C132.18897293 256.5546846 131.92482086 257.49608795 131.65266418 258.46601868 C130.4577759 262.72672656 129.26675937 266.98844964 128.08276367 271.25219727 C127.67895566 272.69680026 127.27507134 274.14138192 126.87109375 275.5859375 C126.35953735 277.42744385 126.35953735 277.42744385 125.83764648 279.30615234 C125 282 125 282 124 283 C120.97022196 283.08871273 117.96332978 283.1151935 114.93359375 283.09765625 C114.02497086 283.0962413 113.11634796 283.09482635 112.18019104 283.09336853 C109.26592779 283.08775193 106.35174019 283.07519665 103.4375 283.0625 C101.46679798 283.05748714 99.49609476 283.05292386 97.52539062 283.04882812 C92.68356441 283.03777711 87.84179505 283.02050138 83 283 C74.12423341 253.84584003 65.44269334 224.63827552 56.87339115 195.39270878 C52.17080722 179.34418424 47.46289855 163.29721987 42.75514984 147.25020981 C41.87594506 144.25322148 40.99683601 141.25620509 40.11773682 138.25918579 C31.35526173 108.38781513 22.55673684 78.52732182 13.71044922 48.68066406 C11.47000401 41.1215141 9.23370325 33.56114522 7 26 C6.64574951 24.8025415 6.29149902 23.60508301 5.92651367 22.37133789 C4.92202596 18.97237496 3.92131252 15.57232582 2.921875 12.171875 C2.62339661 11.163526 2.32491821 10.155177 2.01739502 9.11627197 C1.74965271 8.20230652 1.4819104 7.28834106 1.20605469 6.34667969 C0.97166687 5.55058289 0.73727905 4.75448608 0.49578857 3.93426514 C0 2 0 2 0 0 Z " fill="#2462EA" transform="translate(70,134)"/>
<path d="M0 0 C168.96 0 337.92 0 512 0 C512 168.96 512 337.92 512 512 C427.19 512 342.38 512 255 512 C255 509.03 255 506.06 255 503 C336.84 503 418.68 503 503 503 C503 339.98 503 176.96 503 9 C339.98 9 176.96 9 9 9 C9 90.51 9 172.02 9 256 C6.03 256 3.06 256 0 256 C0 171.52 0 87.04 0 0 Z " fill="#2462EA" transform="translate(0,0)"/>
</svg>
